<?xml version="1.0" encoding="UTF-8" standalone="no"?>
<svg
   viewBox="40 40 100 100"
   width="64"
   height="64"
   version="1.1"
   id="svg16"
   sodipodi:docname="d100-grey.svg"
   inkscape:version="1.2.1 (9c6d41e410, 2022-07-14)"
   xmlns:inkscape="http://www.inkscape.org/namespaces/inkscape"
   xmlns:sodipodi="http://sodipodi.sourceforge.net/DTD/sodipodi-0.dtd"
   xmlns="http://www.w3.org/2000/svg"
   xmlns:svg="http://www.w3.org/2000/svg">
  <defs
     id="defs20" />
  <sodipodi:namedview
     id="namedview18"
     pagecolor="#ffffff"
     bordercolor="#666666"
     borderopacity="1.0"
     inkscape:showpageshadow="2"
     inkscape:pageopacity="0.0"
     inkscape:pagecheckerboard="0"
     inkscape:deskcolor="#d1d1d1"
     showgrid="false"
     inkscape:zoom="3.6875"
     inkscape:cx="-11.118644"
     inkscape:cy="32"
     inkscape:window-width="1920"
     inkscape:window-height="1027"
     inkscape:window-x="1912"
     inkscape:window-y="-8"
     inkscape:window-maximized="1"
     inkscape:current-layer="svg16" />
  <g
     id="g14"
     transform="matrix(0.5,0,0,0.5,29.160085,35.195165)"
     style="stroke-width:2">
    <g
       transform="matrix(1.1679092,0,0,1.1679092,-274.931,-137.53749)"
       id="g12"
       style="stroke-width:2">
      <path
        fill="#ff0000"
         d="m 313.653,154.602 -26.488,55.612 24.356,15.89 26.354,-15.928 z"
         id="path2"
         style="stroke-width:4" />
      <path
        fill="#ff0000"
         d="m 314.9,153.687 24.49,55.919 14.175,-4.584 0.915,-22.612 z"
         id="path4"
         style="stroke-width:4" />
      <path
        fill="#ff0000"
         d="m 312.359,227.393 v 8.568 l 40.76,-28.762 -13.608,3.825 z"
         id="path6"
         style="stroke-width:4" />
      <path
        fill="#ff0000"
         d="m 312.359,153.927 -26.756,55.732 -13.925,-5.99 -1.229,-22.679 z"
         id="path8"
         style="stroke-width:4" />
      <path
        fill="#ff0000"
         d="m 310.517,227.213 v 8.75 l -39.019,-30.157 13.513,5.275 z"
         id="path10"
         style="stroke-width:4" />
    </g>
  </g>
  <g
     id="g315"
     transform="matrix(0.5,0,0,0.5,60.410085,53.945165)"
     style="stroke:#ffffff;stroke-width:1.6875;stroke-dasharray:none">
    <g
       transform="matrix(1.1679092,0,0,1.1679092,-274.931,-137.53749)"
       id="g313"
       style="stroke:#ffffff;stroke-width:1.44489;stroke-dasharray:none">
      <path
        fill="#ff0000"
         d="m 313.653,154.602 -26.488,55.612 24.356,15.89 26.354,-15.928 z"
         id="path303"
         style="stroke:#ffffff;stroke-width:1.44489;stroke-dasharray:none" />
      <path
        fill="#ff0000"
         d="m 314.9,153.687 24.49,55.919 14.175,-4.584 0.915,-22.612 z"
         id="path305"
         style="stroke:#ffffff;stroke-width:1.44489;stroke-dasharray:none" />
      <path
        fill="#ff0000"
         d="m 312.359,227.393 v 8.568 l 40.76,-28.762 -13.608,3.825 z"
         id="path307"
         style="stroke:#ffffff;stroke-width:1.44489;stroke-dasharray:none" />
      <path
        fill="#ff0000"
         d="m 312.359,153.927 -26.756,55.732 -13.925,-5.99 -1.229,-22.679 z"
         id="path309"
         style="stroke:#ffffff;stroke-width:1.44489;stroke-dasharray:none" />
      <path
        fill="#ff0000"
         d="m 310.517,227.213 v 8.75 l -39.019,-30.157 13.513,5.275 z"
         id="path311"
         style="stroke:#ffffff;stroke-width:1.44489;stroke-dasharray:none" />
    </g>
  </g>
</svg>
